<mxfile host="65bd71144e" modified="2021-03-06T07:05:17.107Z" agent="5.0 (Windows NT 10.0; Win64; x64) AppleWebKit/537.36 (KHTML, like Gecko) Code/1.54.1 Chrome/87.0.4280.141 Electron/11.3.0 Safari/537.36" etag="84a3WthCYE3_FeQItn3l" version="14.2.4" type="embed">
    <diagram id="UxHduN-RNN_G0654ucRH" name="Page-1">
        <mxGraphModel dx="1280" dy="585" grid="0" gridSize="10" guides="1" tooltips="1" connect="1" arrows="1" fold="1" page="1" pageScale="1" pageWidth="827" pageHeight="1169" math="0" shadow="0">
            <root>
                <mxCell id="0"/>
                <mxCell id="1" parent="0"/>
                <mxCell id="7" value="&lt;font style=&quot;font-size: 24px&quot; face=&quot;Ubuntu Mono&quot;&gt;Instruction memory&lt;/font&gt;" style="rounded=0;whiteSpace=wrap;html=1;fillColor=#f8cecc;strokeColor=#b85450;" parent="1" vertex="1">
                    <mxGeometry x="442" y="180" width="178" height="60" as="geometry"/>
                </mxCell>
                <mxCell id="8" value="" style="endArrow=none;dashed=1;html=1;dashPattern=1 3;strokeWidth=2;" parent="1" edge="1">
                    <mxGeometry width="50" height="50" relative="1" as="geometry">
                        <mxPoint x="270" y="300" as="sourcePoint"/>
                        <mxPoint x="1480" y="300" as="targetPoint"/>
                    </mxGeometry>
                </mxCell>
                <mxCell id="9" value="" style="endArrow=classic;html=1;entryX=0.311;entryY=0.993;entryDx=0;entryDy=0;entryPerimeter=0;strokeWidth=5;endFill=1;fillColor=#f8cecc;strokeColor=#b85450;" parent="1" target="7" edge="1">
                    <mxGeometry width="50" height="50" relative="1" as="geometry">
                        <mxPoint x="497" y="530" as="sourcePoint"/>
                        <mxPoint x="680" y="440" as="targetPoint"/>
                    </mxGeometry>
                </mxCell>
                <mxCell id="10" value="" style="endArrow=none;html=1;entryX=0.311;entryY=0.993;entryDx=0;entryDy=0;entryPerimeter=0;strokeWidth=5;startArrow=classic;startFill=1;rounded=0;fillColor=#f8cecc;strokeColor=#b85450;" parent="1" edge="1">
                    <mxGeometry width="50" height="50" relative="1" as="geometry">
                        <mxPoint x="686" y="487" as="sourcePoint"/>
                        <mxPoint x="560.358" y="239.99999999999991" as="targetPoint"/>
                        <Array as="points">
                            <mxPoint x="560" y="487"/>
                        </Array>
                    </mxGeometry>
                </mxCell>
                <mxCell id="11" value="" style="endArrow=none;html=1;strokeWidth=5;fillColor=#f8cecc;strokeColor=#b85450;" parent="1" edge="1">
                    <mxGeometry width="50" height="50" relative="1" as="geometry">
                        <mxPoint x="416" y="530" as="sourcePoint"/>
                        <mxPoint x="532" y="530" as="targetPoint"/>
                    </mxGeometry>
                </mxCell>
                <mxCell id="14" value="&lt;font style=&quot;font-size: 24px&quot; face=&quot;Ubuntu Mono&quot;&gt;Register File&lt;/font&gt;" style="rounded=0;whiteSpace=wrap;html=1;" parent="1" vertex="1">
                    <mxGeometry x="784" y="536" width="152" height="87" as="geometry"/>
                </mxCell>
                <mxCell id="17" value="&lt;font style=&quot;font-size: 36px&quot; face=&quot;Ubuntu Mono&quot;&gt;+ 4&lt;/font&gt;" style="whiteSpace=wrap;html=1;aspect=fixed;fillColor=#f8cecc;strokeColor=#b85450;" parent="1" vertex="1">
                    <mxGeometry x="491" y="620" width="80" height="80" as="geometry"/>
                </mxCell>
                <mxCell id="18" value="" style="endArrow=none;html=1;strokeWidth=5;exitX=0.5;exitY=0;exitDx=0;exitDy=0;fillColor=#f8cecc;strokeColor=#b85450;" parent="1" source="17" edge="1">
                    <mxGeometry width="50" height="50" relative="1" as="geometry">
                        <mxPoint x="760" y="600" as="sourcePoint"/>
                        <mxPoint x="530" y="530" as="targetPoint"/>
                    </mxGeometry>
                </mxCell>
                <mxCell id="19" value="" style="endArrow=none;html=1;strokeWidth=5;fillColor=#f8cecc;strokeColor=#b85450;" parent="1" edge="1">
                    <mxGeometry width="50" height="50" relative="1" as="geometry">
                        <mxPoint x="530" y="814" as="sourcePoint"/>
                        <mxPoint x="530" y="699" as="targetPoint"/>
                    </mxGeometry>
                </mxCell>
                <mxCell id="20" value="&lt;font style=&quot;font-size: 36px&quot; face=&quot;Ubuntu Mono&quot;&gt;PC&lt;/font&gt;" style="text;html=1;strokeColor=none;fillColor=none;align=center;verticalAlign=middle;whiteSpace=wrap;rounded=0;" parent="1" vertex="1">
                    <mxGeometry x="434" y="495" width="40" height="20" as="geometry"/>
                </mxCell>
                <mxCell id="23" value="&lt;font style=&quot;font-size: 36px&quot; face=&quot;Ubuntu Mono&quot;&gt;Instr&lt;/font&gt;" style="text;html=1;strokeColor=none;fillColor=none;align=center;verticalAlign=middle;whiteSpace=wrap;rounded=0;" parent="1" vertex="1">
                    <mxGeometry x="600" y="347" width="40" height="20" as="geometry"/>
                </mxCell>
                <mxCell id="24" value="&lt;font style=&quot;font-size: 24px&quot; face=&quot;Ubuntu Mono&quot;&gt;Controller&lt;/font&gt;" style="rounded=0;whiteSpace=wrap;html=1;fillColor=#ffe6cc;strokeColor=#d79b00;" parent="1" vertex="1">
                    <mxGeometry x="784" y="347" width="152" height="87" as="geometry"/>
                </mxCell>
                <mxCell id="25" value="" style="endArrow=none;html=1;strokeWidth=5;rounded=0;fillColor=#ffe6cc;strokeColor=#d79b00;" parent="1" edge="1">
                    <mxGeometry width="50" height="50" relative="1" as="geometry">
                        <mxPoint x="684" y="489" as="sourcePoint"/>
                        <mxPoint x="784.0000000000002" y="387" as="targetPoint"/>
                        <Array as="points">
                            <mxPoint x="684" y="387"/>
                        </Array>
                    </mxGeometry>
                </mxCell>
                <mxCell id="26" value="" style="endArrow=none;html=1;strokeWidth=5;rounded=0;entryX=0;entryY=0.25;entryDx=0;entryDy=0;fillColor=#ffe6cc;strokeColor=#d79b00;" parent="1" target="14" edge="1">
                    <mxGeometry width="50" height="50" relative="1" as="geometry">
                        <mxPoint x="684" y="488" as="sourcePoint"/>
                        <mxPoint x="705" y="536" as="targetPoint"/>
                        <Array as="points">
                            <mxPoint x="684" y="558"/>
                        </Array>
                    </mxGeometry>
                </mxCell>
                <mxCell id="28" value="" style="endArrow=none;html=1;strokeWidth=5;fillColor=#ffe6cc;strokeColor=#d79b00;" parent="1" edge="1">
                    <mxGeometry width="50" height="50" relative="1" as="geometry">
                        <mxPoint x="936" y="560" as="sourcePoint"/>
                        <mxPoint x="1029" y="560" as="targetPoint"/>
                    </mxGeometry>
                </mxCell>
                <mxCell id="30" value="" style="endArrow=none;html=1;strokeWidth=5;fillColor=#ffe6cc;" parent="1" edge="1">
                    <mxGeometry width="50" height="50" relative="1" as="geometry">
                        <mxPoint x="936" y="600" as="sourcePoint"/>
                        <mxPoint x="954" y="600" as="targetPoint"/>
                    </mxGeometry>
                </mxCell>
                <mxCell id="31" value="&lt;font face=&quot;Ubuntu Mono&quot; style=&quot;font-size: 36px&quot;&gt;+&lt;/font&gt;" style="whiteSpace=wrap;html=1;aspect=fixed;fillColor=#FFFF33;strokeColor=#CCCC00;" parent="1" vertex="1">
                    <mxGeometry x="1030" y="540" width="96" height="96" as="geometry"/>
                </mxCell>
                <mxCell id="32" value="" style="endArrow=none;html=1;strokeWidth=5;exitX=0.473;exitY=-0.002;exitDx=0;exitDy=0;exitPerimeter=0;fillColor=#e1d5e7;strokeColor=#9673a6;" parent="1" source="14" edge="1">
                    <mxGeometry width="50" height="50" relative="1" as="geometry">
                        <mxPoint x="856" y="530" as="sourcePoint"/>
                        <mxPoint x="856" y="434" as="targetPoint"/>
                    </mxGeometry>
                </mxCell>
                <mxCell id="36" value="&lt;font style=&quot;font-size: 36px&quot; face=&quot;Ubuntu Mono&quot;&gt;rs&lt;/font&gt;" style="text;html=1;strokeColor=none;fillColor=none;align=center;verticalAlign=middle;whiteSpace=wrap;rounded=0;" parent="1" vertex="1">
                    <mxGeometry x="707" y="522" width="40" height="20" as="geometry"/>
                </mxCell>
                <mxCell id="40" value="&lt;font style=&quot;font-size: 18px&quot; face=&quot;Ubuntu Mono&quot;&gt;Mux&lt;/font&gt;" style="shadow=0;dashed=0;align=center;html=1;strokeWidth=1;shape=mxgraph.electrical.abstract.mux2;fillColor=#FFFF33;strokeColor=#CCCC00;" parent="1" vertex="1">
                    <mxGeometry x="952" y="577" width="58" height="99" as="geometry"/>
                </mxCell>
                <mxCell id="41" value="" style="endArrow=none;html=1;strokeWidth=5;rounded=0;fillColor=#ffe6cc;strokeColor=#d79b00;" parent="1" edge="1">
                    <mxGeometry width="50" height="50" relative="1" as="geometry">
                        <mxPoint x="684" y="557" as="sourcePoint"/>
                        <mxPoint x="791" y="657" as="targetPoint"/>
                        <Array as="points">
                            <mxPoint x="684" y="657"/>
                        </Array>
                    </mxGeometry>
                </mxCell>
                <mxCell id="42" value="" style="endArrow=none;html=1;strokeWidth=5;fillColor=#fff2cc;strokeColor=#CCCC00;" parent="1" edge="1">
                    <mxGeometry width="50" height="50" relative="1" as="geometry">
                        <mxPoint x="1010" y="620" as="sourcePoint"/>
                        <mxPoint x="1031" y="620" as="targetPoint"/>
                    </mxGeometry>
                </mxCell>
                <mxCell id="43" value="&lt;font style=&quot;font-size: 24px&quot; face=&quot;Ubuntu Mono&quot;&gt;Extention&lt;/font&gt;" style="rounded=0;whiteSpace=wrap;html=1;fillColor=#ffe6cc;strokeColor=#d79b00;" parent="1" vertex="1">
                    <mxGeometry x="791" y="630" width="120" height="60" as="geometry"/>
                </mxCell>
                <mxCell id="44" value="" style="endArrow=none;html=1;strokeWidth=5;fillColor=#ffe6cc;strokeColor=#d79b00;entryX=0;entryY=0.6287878787878788;entryDx=0;entryDy=3;entryPerimeter=0;" parent="1" target="40" edge="1">
                    <mxGeometry width="50" height="50" relative="1" as="geometry">
                        <mxPoint x="911" y="642" as="sourcePoint"/>
                        <mxPoint x="929" y="642" as="targetPoint"/>
                    </mxGeometry>
                </mxCell>
                <mxCell id="46" value="" style="endArrow=none;html=1;strokeWidth=5;fillColor=#fff2cc;entryX=0.3275862068965517;entryY=1;entryDx=10;entryDy=0;entryPerimeter=0;rounded=0;strokeColor=#CCCC00;" parent="1" target="40" edge="1">
                    <mxGeometry width="50" height="50" relative="1" as="geometry">
                        <mxPoint x="936" y="387" as="sourcePoint"/>
                        <mxPoint x="980" y="762" as="targetPoint"/>
                        <Array as="points">
                            <mxPoint x="1252" y="387"/>
                            <mxPoint x="1252" y="762"/>
                            <mxPoint x="981" y="762"/>
                        </Array>
                    </mxGeometry>
                </mxCell>
                <mxCell id="47" value="&lt;font style=&quot;font-size: 24px&quot; face=&quot;Ubuntu Mono&quot;&gt;Data memory&lt;/font&gt;" style="rounded=0;whiteSpace=wrap;html=1;fillColor=#f8cecc;strokeColor=#b85450;" parent="1" vertex="1">
                    <mxGeometry x="1168" y="180" width="129" height="60" as="geometry"/>
                </mxCell>
                <mxCell id="48" value="" style="endArrow=classic;html=1;strokeWidth=5;fillColor=#e1d5e7;strokeColor=#0000FF;rounded=0;endFill=1;" parent="1" edge="1">
                    <mxGeometry width="50" height="50" relative="1" as="geometry">
                        <mxPoint x="1126" y="595" as="sourcePoint"/>
                        <mxPoint x="1240" y="242" as="targetPoint"/>
                        <Array as="points">
                            <mxPoint x="1240" y="595"/>
                        </Array>
                    </mxGeometry>
                </mxCell>
                <mxCell id="49" value="" style="endArrow=classic;html=1;strokeWidth=5;fillColor=#e1d5e7;strokeColor=#9673a6;rounded=0;endFill=1;entryX=1;entryY=0.21666666666666667;entryDx=0;entryDy=3;entryPerimeter=0;" parent="1" target="50" edge="1">
                    <mxGeometry width="50" height="50" relative="1" as="geometry">
                        <mxPoint x="1204" y="240" as="sourcePoint"/>
                        <mxPoint x="1204" y="426" as="targetPoint"/>
                        <Array as="points">
                            <mxPoint x="1204" y="424"/>
                        </Array>
                    </mxGeometry>
                </mxCell>
                <mxCell id="50" value="&lt;font face=&quot;Ubuntu Mono&quot; style=&quot;font-size: 18px&quot;&gt;Mux&lt;/font&gt;" style="shadow=0;dashed=0;align=center;html=1;strokeWidth=1;shape=mxgraph.electrical.abstract.mux2;operation=demux;fillColor=#e1d5e7;strokeColor=#9673a6;" parent="1" vertex="1">
                    <mxGeometry x="1091" y="395" width="80" height="120" as="geometry"/>
                </mxCell>
                <mxCell id="51" value="" style="endArrow=none;html=1;strokeWidth=5;fillColor=#e1d5e7;" parent="1" edge="1">
                    <mxGeometry width="50" height="50" relative="1" as="geometry">
                        <mxPoint x="1171" y="476" as="sourcePoint"/>
                        <mxPoint x="1240" y="476" as="targetPoint"/>
                    </mxGeometry>
                </mxCell>
                <mxCell id="53" value="" style="endArrow=none;html=1;strokeWidth=5;fillColor=#e1d5e7;strokeColor=#9673a6;rounded=0;" parent="1" edge="1">
                    <mxGeometry width="50" height="50" relative="1" as="geometry">
                        <mxPoint x="910" y="537" as="sourcePoint"/>
                        <mxPoint x="1091" y="450" as="targetPoint"/>
                        <Array as="points">
                            <mxPoint x="910" y="450"/>
                        </Array>
                    </mxGeometry>
                </mxCell>
                <mxCell id="54" value="" style="endArrow=classic;html=1;strokeWidth=5;fillColor=#e1d5e7;strokeColor=#0000FF;rounded=0;endFill=1;entryX=0.003;entryY=0.397;entryDx=0;entryDy=0;entryPerimeter=0;" parent="1" target="47" edge="1">
                    <mxGeometry width="50" height="50" relative="1" as="geometry">
                        <mxPoint x="936" y="367" as="sourcePoint"/>
                        <mxPoint x="1171" y="135" as="targetPoint"/>
                        <Array as="points">
                            <mxPoint x="1050" y="367"/>
                            <mxPoint x="1050" y="205"/>
                        </Array>
                    </mxGeometry>
                </mxCell>
                <mxCell id="55" value="" style="endArrow=none;html=1;strokeWidth=5;fillColor=#e1d5e7;strokeColor=#9673a6;rounded=0;entryX=1;entryY=0.75;entryDx=0;entryDy=0;exitX=0.375;exitY=1;exitDx=10;exitDy=0;exitPerimeter=0;" parent="1" source="50" target="24" edge="1">
                    <mxGeometry width="50" height="50" relative="1" as="geometry">
                        <mxPoint x="1143" y="526" as="sourcePoint"/>
                        <mxPoint x="1000.1" y="413.17" as="targetPoint"/>
                        <Array as="points">
                            <mxPoint x="1000" y="515"/>
                            <mxPoint x="1000" y="412"/>
                        </Array>
                    </mxGeometry>
                </mxCell>
                <mxCell id="56" value="" style="endArrow=none;html=1;strokeWidth=5;rounded=0;entryX=0;entryY=0.75;entryDx=0;entryDy=0;fillColor=#ffe6cc;" edge="1" parent="1">
                    <mxGeometry width="50" height="50" relative="1" as="geometry">
                        <mxPoint x="746" y="601" as="sourcePoint"/>
                        <mxPoint x="784" y="601.25" as="targetPoint"/>
                        <Array as="points"/>
                    </mxGeometry>
                </mxCell>
                <mxCell id="57" value="" style="endArrow=none;html=1;strokeWidth=5;rounded=0;entryX=0.17;entryY=0.016;entryDx=0;entryDy=0;entryPerimeter=0;fillColor=#e1d5e7;exitX=1;exitY=0.5;exitDx=0;exitDy=-5;exitPerimeter=0;strokeColor=#9673A6;" edge="1" parent="1" source="61">
                    <mxGeometry width="50" height="50" relative="1" as="geometry">
                        <mxPoint x="787" y="457" as="sourcePoint"/>
                        <mxPoint x="809.8399999999999" y="537.3919999999999" as="targetPoint"/>
                        <Array as="points">
                            <mxPoint x="810" y="466"/>
                        </Array>
                    </mxGeometry>
                </mxCell>
                <mxCell id="58" value="&lt;font style=&quot;font-size: 36px&quot; face=&quot;Ubuntu Mono&quot;&gt;rs&lt;/font&gt;" style="text;html=1;strokeColor=none;fillColor=none;align=center;verticalAlign=middle;whiteSpace=wrap;rounded=0;" vertex="1" parent="1">
                    <mxGeometry x="707" y="522" width="40" height="20" as="geometry"/>
                </mxCell>
                <mxCell id="59" value="&lt;font style=&quot;font-size: 36px&quot; face=&quot;Ubuntu Mono&quot;&gt;rt&lt;/font&gt;" style="text;html=1;strokeColor=none;fillColor=none;align=center;verticalAlign=middle;whiteSpace=wrap;rounded=0;" vertex="1" parent="1">
                    <mxGeometry x="707" y="610" width="40" height="20" as="geometry"/>
                </mxCell>
                <mxCell id="60" value="" style="endArrow=none;html=1;strokeWidth=5;fillColor=#6a00ff;rounded=0;strokeColor=#CCCC00;" edge="1" parent="1">
                    <mxGeometry width="50" height="50" relative="1" as="geometry">
                        <mxPoint x="686" y="601" as="sourcePoint"/>
                        <mxPoint x="746" y="476" as="targetPoint"/>
                        <Array as="points">
                            <mxPoint x="746" y="601"/>
                        </Array>
                    </mxGeometry>
                </mxCell>
                <mxCell id="61" value="&lt;font face=&quot;Ubuntu Mono&quot;&gt;Mux&lt;/font&gt;" style="shadow=0;dashed=0;align=center;html=1;strokeWidth=1;shape=mxgraph.electrical.abstract.mux2;fillColor=#CCCC00;" vertex="1" parent="1">
                    <mxGeometry x="748" y="440" width="50.33" height="61" as="geometry"/>
                </mxCell>
                <mxCell id="62" value="" style="endArrow=none;html=1;strokeWidth=5;fillColor=#ffe6cc;entryX=0.043;entryY=0.233;entryDx=0;entryDy=0;entryPerimeter=0;" edge="1" parent="1" target="61">
                    <mxGeometry width="50" height="50" relative="1" as="geometry">
                        <mxPoint x="686" y="454" as="sourcePoint"/>
                        <mxPoint x="747" y="454" as="targetPoint"/>
                    </mxGeometry>
                </mxCell>
                <mxCell id="63" value="&lt;font style=&quot;font-size: 36px&quot; face=&quot;Ubuntu Mono&quot;&gt;rd&lt;/font&gt;" style="text;html=1;strokeColor=none;fillColor=none;align=center;verticalAlign=middle;whiteSpace=wrap;rounded=0;" vertex="1" parent="1">
                    <mxGeometry x="704" y="420" width="40" height="20" as="geometry"/>
                </mxCell>
                <mxCell id="64" value="" style="endArrow=none;html=1;strokeWidth=5;exitX=0.30131134512219354;exitY=1;exitDx=10;exitDy=0;exitPerimeter=0;fillColor=#e1d5e7;rounded=0;strokeColor=#CCCC00;" edge="1" parent="1" source="61">
                    <mxGeometry width="50" height="50" relative="1" as="geometry">
                        <mxPoint x="835.996" y="535.8259999999999" as="sourcePoint"/>
                        <mxPoint x="836.1" y="434" as="targetPoint"/>
                        <Array as="points">
                            <mxPoint x="836" y="500"/>
                        </Array>
                    </mxGeometry>
                </mxCell>
            </root>
        </mxGraphModel>
    </diagram>
</mxfile>